#format: frame checksums
#version: 2
#hash: MD5
#tb 0: 1001/30000
#media_type 0: video
#codec_id 0: rawvideo
#dimensions 0: 226x196
#sar 0: 1/1
#stream#, dts,        pts, duration,     size, hash
0,          0,          0,        1,    66444, 4757a31842453f806de2f2256329547e
0,          1,          1,        1,    66444, fe5fb955a4143091c5bfae7c4a4afe0f
0,          2,          2,        1,    66444, 93766c5a03d71f99afb7705add7b63f0
0,          3,          3,        1,    66444, 30c91162aa6fb0ed3e47325146bb6d8a
0,          4,          4,        1,    66444, 501fe67785b970b1b62c2ae0b36b19ad
0,          5,          5,        1,    66444, 836be5e778e3d20e75c4fcd71f765b3d
0,          6,          6,        1,    66444, 21a9fd5e78212fe71719e173844bc6e6
0,          7,          7,        1,    66444, 81b3919208e345d93dde62740b47dd93
0,          8,          8,        1,    66444, df010555a929ba88a2f25c6267e3786e
0,          9,          9,        1,    66444, d2cff8282e5e7a5bbd879c73df0670c3
